<?xml version="1.0" encoding="UTF-8"?>
<svg version="1.1" xmlns="http://www.w3.org/2000/svg" width="80" height="80">
<path d="M0 0 C26.4 0 52.8 0 80 0 C80 26.4 80 52.8 80 80 C53.6 80 27.2 80 0 80 C0 53.6 0 27.2 0 0 Z " fill="#1B1B1B" transform="translate(0,0)"/>
<path d="M0 0 C2.94586829 4.41880243 3.0985616 6.67767339 3 12 C4.65 12 6.3 12 8 12 C7.67 13.98 7.34 15.96 7 18 C7.99 18.33 8.98 18.66 10 19 C10 18.01 10 17.02 10 16 C10.66 16.33 11.32 16.66 12 17 C11.67 17.66 11.34 18.32 11 19 C11.99 19 12.98 19 14 19 C14.495 17.515 14.495 17.515 15 16 C15 16.99 15 17.98 15 19 C15.66 19 16.32 19 17 19 C17 19.66 17 20.32 17 21 C17.66 21 18.32 21 19 21 C19 20.34 19 19.68 19 19 C19.99 19 20.98 19 22 19 C22 18.34 22 17.68 22 17 C22.99 17.33 23.98 17.66 25 18 C25 18.99 25 19.98 25 21 C25.33 20.34 25.66 19.68 26 19 C26.66 19 27.32 19 28 19 C28 16.69 28 14.38 28 12 C27.34 12 26.68 12 26 12 C26 11.34 26 10.68 26 10 C25.34 10 24.68 10 24 10 C24 9.01 24 8.02 24 7 C24.66 7 25.32 7 26 7 C26 6.34 26 5.68 26 5 C29 3 29 3 32 3 C31.67 5.97 31.34 8.94 31 12 C32.65 12 34.3 12 36 12 C36 11.34 36 10.68 36 10 C35.34 10 34.68 10 34 10 C34.33 8.35 34.66 6.7 35 5 C36.32 5 37.64 5 39 5 C39.495 6.98 39.495 6.98 40 9 C41.32 9.33 42.64 9.66 44 10 C42.68 10 41.36 10 40 10 C40 10.66 40 11.32 40 12 C43.54518884 10.60240095 43.54518884 10.60240095 47 9 C49.29041968 9.25207655 51.53897199 9.64271999 53.80859375 10.0390625 C56.44869374 10.24569833 56.44869374 10.24569833 59 7 C59 20.53 59 34.06 59 48 C32.6 48 6.2 48 -21 48 C-21 36.12 -21 24.24 -21 12 C-18.03 12.33 -15.06 12.66 -12 13 C-11.67 12.34 -11.34 11.68 -11 11 C-9.90341064 14.28976808 -10.20046862 15.71303767 -11 19 C-10.34 19 -9.68 19 -9 19 C-8.67 19.99 -8.34 20.98 -8 22 C-5.9837767 21.28436734 -5.9837767 21.28436734 -4 20 C-3.19471111 17.94999129 -3.19471111 17.94999129 -3 16 C-3 16.99 -3 17.98 -3 19 C-1.02 19 0.96 19 3 19 C3 18.01 3 17.02 3 16 C1.68 15.67 0.36 15.34 -1 15 C-1.495 10.05 -1.495 10.05 -2 5 C-2.66 5 -3.32 5 -4 5 C-4 5.66 -4 6.32 -4 7 C-4.66 7 -5.32 7 -6 7 C-6 5.35 -6 3.7 -6 2 C-4.7934375 1.7834375 -4.7934375 1.7834375 -3.5625 1.5625 C-1.07896294 1.25864751 -1.07896294 1.25864751 0 0 Z " fill="#1A1A1A" transform="translate(21,32)"/>
<path d="M0 0 C1.65 0 3.3 0 5 0 C4.01 0.33 3.02 0.66 2 1 C2 1.66 2 2.32 2 3 C2.99 3.33 3.98 3.66 5 4 C5.66 4.66 6.32 5.32 7 6 C10.76430913 4.74523029 11.05044108 3.30577382 13 0 C13.66 0 14.32 0 15 0 C15.66 2.31 16.32 4.62 17 7 C16.34 7 15.68 7 15 7 C15.33 8.32 15.66 9.64 16 11 C16.99 11 17.98 11 19 11 C19 11.99 19 12.98 19 14 C18.01 14 17.02 14 16 14 C16 14.66 16 15.32 16 16 C15.34 16 14.68 16 14 16 C14 15.34 14 14.68 14 14 C12.02 14 10.04 14 8 14 C7.67 13.01 7.34 12.02 7 11 C7 11.99 7 12.98 7 14 C5.68 13.67 4.36 13.34 3 13 C3.33 11.35 3.66 9.7 4 8 C2.68 7.67 1.36 7.34 0 7 C0 4.69 0 2.38 0 0 Z " fill="#3C3C3C" transform="translate(24,37)"/>
<path d="M0 0 C0.66 0 1.32 0 2 0 C2 0.99 2 1.98 2 3 C2.99 3 3.98 3 5 3 C5 2.01 5 1.02 5 0 C5.66 0 6.32 0 7 0 C7.66 3.3 8.32 6.6 9 10 C9.99 10.33 10.98 10.66 12 11 C12 11.99 12 12.98 12 14 C10.02 14 8.04 14 6 14 C5.67 14.99 5.34 15.98 5 17 C3.0625 17.8125 3.0625 17.8125 1 18 C0.34 17.34 -0.32 16.68 -1 16 C-0.67 15.34 -0.34 14.68 0 14 C-0.66 14 -1.32 14 -2 14 C-2 12.35 -2 10.7 -2 9 C-1.34 8.67 -0.68 8.34 0 8 C0 5.36 0 2.72 0 0 Z " fill="#515151" transform="translate(12,37)"/>
<path d="M0 0 C0 0.66 0 1.32 0 2 C0.66 2 1.32 2 2 2 C3.14947895 5.55293493 3.0868937 6.79976669 1.5625 10.3125 C0.7890625 11.6428125 0.7890625 11.6428125 0 13 C-2.97 12.505 -2.97 12.505 -6 12 C-6 11.34 -6 10.68 -6 10 C-6.99 10.33 -7.98 10.66 -9 11 C-10.1875 8.3125 -10.1875 8.3125 -11 5 C-9.8125 2.1875 -9.8125 2.1875 -8 0 C-4.71023192 -1.09658936 -3.28696233 -0.79953138 0 0 Z " fill="#646464" transform="translate(45,21)"/>
<path d="M0 0 C1.33333333 0.66666667 2.66666667 1.33333333 4 2 C5.32 2 6.64 2 8 2 C8 2.66 8 3.32 8 4 C8.66 4 9.32 4 10 4 C10 3.34 10 2.68 10 2 C10.99 2 11.98 2 13 2 C13 2.66 13 3.32 13 4 C13.99 4.33 14.98 4.66 16 5 C15.67 5.99 15.34 6.98 15 8 C14.01 8 13.02 8 12 8 C11.67 7.34 11.34 6.68 11 6 C10.67 6.66 10.34 7.32 10 8 C5.71 8 1.42 8 -3 8 C-3 6.68 -3 5.36 -3 4 C-3.66 3.34 -4.32 2.68 -5 2 C-3.68 2 -2.36 2 -1 2 C-0.67 1.34 -0.34 0.68 0 0 Z M-8 3 C-6.68 3.33 -5.36 3.66 -4 4 C-4.33 5.32 -4.66 6.64 -5 8 C-5.66 8 -6.32 8 -7 8 C-7.33 6.35 -7.66 4.7 -8 3 Z " fill="#4C4C4C" transform="translate(58,43)"/>
<path d="M0 0 C1.65 0 3.3 0 5 0 C4.01 0.33 3.02 0.66 2 1 C2 1.66 2 2.32 2 3 C2.99 3.33 3.98 3.66 5 4 C5.66 4.66 6.32 5.32 7 6 C8.0209375 6.2165625 8.0209375 6.2165625 9.0625 6.4375 C9.701875 6.623125 10.34125 6.80875 11 7 C11.33 7.99 11.66 8.98 12 10 C10.35 10.33 8.7 10.66 7 11 C7 11.99 7 12.98 7 14 C5.68 13.67 4.36 13.34 3 13 C3.33 11.35 3.66 9.7 4 8 C2.68 7.67 1.36 7.34 0 7 C0 4.69 0 2.38 0 0 Z " fill="#333333" transform="translate(24,37)"/>
<path d="M0 0 C2.475 0.495 2.475 0.495 5 1 C5 1.66 5 2.32 5 3 C5.66 3 6.32 3 7 3 C8.14947895 6.55293493 8.0868937 7.79976669 6.5625 11.3125 C5.7890625 12.6428125 5.7890625 12.6428125 5 14 C3.68 13.67 2.36 13.34 1 13 C1.51602392 10.93590431 2.02201701 8.93945323 2.75 6.9375 C2.8325 6.298125 2.915 5.65875 3 5 C1.60411246 3.35405861 1.60411246 3.35405861 0 2 C0 1.34 0 0.68 0 0 Z " fill="#4D4D4D" transform="translate(40,20)"/>
<path d="M0 0 C0.66 0.33 1.32 0.66 2 1 C3.67654729 0.72057545 5.34608154 0.39171753 7 0 C6.67 2.64 6.34 5.28 6 8 C5.34 8 4.68 8 4 8 C3.67 8.99 3.34 9.98 3 11 C1 9 1 9 0 6 C-0.66 5.67 -1.32 5.34 -2 5 C-2 4.34 -2 3.68 -2 3 C-1.34 3 -0.68 3 0 3 C0 2.01 0 1.02 0 0 Z " fill="#2D2D2D" transform="translate(43,43)"/>
<path d="M0 0 C3.875 0.875 3.875 0.875 5 2 C5.99 2 6.98 2 8 2 C8.33 1.34 8.66 0.68 9 0 C9.99 0 10.98 0 12 0 C11.67 1.32 11.34 2.64 11 4 C11.99 4.33 12.98 4.66 14 5 C12 6 12 6 8.5 5.4375 C7.345 5.293125 6.19 5.14875 5 5 C4.34 5.66 3.68 6.32 3 7 C1.68 7 0.36 7 -1 7 C-1 6.34 -1 5.68 -1 5 C-0.01 4.67 0.98 4.34 2 4 C1.34 3.67 0.68 3.34 0 3 C0 2.01 0 1.02 0 0 Z " fill="#8D8D8D" transform="translate(62,37)"/>
<path d="M0 0 C2.7558573 4.13378595 3.10756445 6.05203546 3 11 C1.68 9.68 0.36 8.36 -1 7 C-1.33 8.32 -1.66 9.64 -2 11 C-2 9.02 -2 7.04 -2 5 C-2.66 5 -3.32 5 -4 5 C-4 5.66 -4 6.32 -4 7 C-4.66 7 -5.32 7 -6 7 C-6 5.35 -6 3.7 -6 2 C-4.7934375 1.7834375 -4.7934375 1.7834375 -3.5625 1.5625 C-1.07896294 1.25864751 -1.07896294 1.25864751 0 0 Z " fill="#131313" transform="translate(21,32)"/>
<path d="M0 0 C-0.99 0.495 -0.99 0.495 -2 1 C-1.01 1.66 -0.02 2.32 1 3 C1 3.66 1 4.32 1 5 C-0.97746603 5.73080266 -2.98072489 6.39421747 -5 7 C-5.66 6.67 -6.32 6.34 -7 6 C-7 4.02 -7 2.04 -7 0 C-3.86650268 -1.04449911 -3.01031744 -0.93423645 0 0 Z " fill="#717171" transform="translate(7,38)"/>
<path d="M0 0 C1.32 0.33 2.64 0.66 4 1 C4 1.66 4 2.32 4 3 C4.66 3 5.32 3 6 3 C6 3.66 6 4.32 6 5 C5.05125 5.2475 4.1025 5.495 3.125 5.75 C-0.08693191 6.6857077 -0.08693191 6.6857077 -1.375 9.125 C-1.58125 9.74375 -1.7875 10.3625 -2 11 C-2 10.01 -2 9.02 -2 8 C-2.66 7.67 -3.32 7.34 -4 7 C-3.34 7 -2.68 7 -2 7 C-2 6.34 -2 5.68 -2 5 C-1.34 5 -0.68 5 0 5 C-0.33 4.01 -0.66 3.02 -1 2 C-0.67 1.34 -0.34 0.68 0 0 Z " fill="#2D2D2D" transform="translate(41,39)"/>
<path d="M0 0 C0.33 0.99 0.66 1.98 1 3 C0.34 3 -0.32 3 -1 3 C-1 3.66 -1 4.32 -1 5 C-0.34 5.33 0.32 5.66 1 6 C0.01 6 -0.98 6 -2 6 C-2.33 6.66 -2.66 7.32 -3 8 C-3.99 8.495 -3.99 8.495 -5 9 C-5.33 7.02 -5.66 5.04 -6 3 C-5.34 3 -4.68 3 -4 3 C-4 2.34 -4 1.68 -4 1 C-2.68 1.33 -1.36 1.66 0 2 C0 1.34 0 0.68 0 0 Z " fill="#161616" transform="translate(45,32)"/>
<path d="M0 0 C1.4606285 2.64738916 2 3.89448334 2 7 C-1.47823115 8.15941038 -3.45895578 7.70820884 -7 7 C-7 5.02 -7 3.04 -7 1 C-6.67 1.99 -6.34 2.98 -6 4 C-4.02 4 -2.04 4 0 4 C0 2.68 0 1.36 0 0 Z " fill="#141414" transform="translate(24,47)"/>
<path d="M0 0 C0.99 0 1.98 0 3 0 C3 0.66 3 1.32 3 2 C3.99 2.33 4.98 2.66 6 3 C5.67 3.99 5.34 4.98 5 6 C4.01 6 3.02 6 2 6 C1.67 5.34 1.34 4.68 1 4 C0.34 4.66 -0.32 5.32 -1 6 C-1.33 4.68 -1.66 3.36 -2 2 C-1.34 2 -0.68 2 0 2 C0 1.34 0 0.68 0 0 Z " fill="#525252" transform="translate(68,45)"/>
<path d="M0 0 C1.32 0 2.64 0 4 0 C3.67 1.65 3.34 3.3 3 5 C3.66 5 4.32 5 5 5 C5 5.66 5 6.32 5 7 C3.35 7 1.7 7 0 7 C0 4.69 0 2.38 0 0 Z " fill="#8A8A8A" transform="translate(52,37)"/>
<path d="M0 0 C1.32 0 2.64 0 4 0 C4.33 1.98 4.66 3.96 5 6 C3.35 6 1.7 6 0 6 C-0.38218767 4.34385343 -0.71395102 2.67542976 -1 1 C-0.67 0.67 -0.34 0.34 0 0 Z " fill="#3E3E3E" transform="translate(62,45)"/>
<path d="M0 0 C1.65 0 3.3 0 5 0 C4.01 0.33 3.02 0.66 2 1 C2 1.66 2 2.32 2 3 C2.99 3.33 3.98 3.66 5 4 C5 4.99 5 5.98 5 7 C3.35 7 1.7 7 0 7 C0 4.69 0 2.38 0 0 Z " fill="#ACACAC" transform="translate(24,37)"/>
<path d="M0 0 C0.99 0.99 1.98 1.98 3 3 C2.67 3.99 2.34 4.98 2 6 C-0.0625 6.6875 -0.0625 6.6875 -2 7 C-2.33 5.35 -2.66 3.7 -3 2 C-2.01 1.34 -1.02 0.68 0 0 Z " fill="#989898" transform="translate(41,23)"/>
<path d="M0 0 C0.66 0 1.32 0 2 0 C2.66 2.31 3.32 4.62 4 7 C3.21625 6.814375 2.4325 6.62875 1.625 6.4375 C-0.97089775 5.74037734 -0.97089775 5.74037734 -3 7 C-1.125 1.125 -1.125 1.125 0 0 Z " fill="#B0B0B0" transform="translate(37,37)"/>
<path d="M0 0 C1.98 0 3.96 0 6 0 C6.66 1.32 7.32 2.64 8 4 C4.98968256 4.93423645 4.13349732 5.04449911 1 4 C0.3125 1.9375 0.3125 1.9375 0 0 Z " fill="#2D2D2D" transform="translate(25,36)"/>
<path d="M0 0 C0.66 0.33 1.32 0.66 2 1 C1.67 1.66 1.34 2.32 1 3 C1.99 3.33 2.98 3.66 4 4 C3.01 5.485 3.01 5.485 2 7 C0.68 6.67 -0.64 6.34 -2 6 C-1.49396008 3.83125748 -1.00016187 2.00032373 0 0 Z " fill="#565656" transform="translate(43,27)"/>
<path d="M0 0 C1.98 0 3.96 0 6 0 C6 0.99 6 1.98 6 3 C5.01 3 4.02 3 3 3 C3 3.66 3 4.32 3 5 C2.34 5 1.68 5 1 5 C0.67 3.35 0.34 1.7 0 0 Z " fill="#6B6B6B" transform="translate(37,48)"/>
<path d="M0 0 C0.66 1.32 1.32 2.64 2 4 C1.34 4 0.68 4 0 4 C-0.66 5.32 -1.32 6.64 -2 8 C-2 7.01 -2 6.02 -2 5 C-2.66 4.67 -3.32 4.34 -4 4 C-3.34 4 -2.68 4 -2 4 C-2 3.34 -2 2.68 -2 2 C-1.34 2 -0.68 2 0 2 C0 1.34 0 0.68 0 0 Z " fill="#141414" transform="translate(41,42)"/>
<path d="M0 0 C0 0.66 0 1.32 0 2 C-0.99 2 -1.98 2 -3 2 C-3.33 2.66 -3.66 3.32 -4 4 C-4 3.01 -4 2.02 -4 1 C-5.32 0.67 -6.64 0.34 -8 0 C-4.94736336 -0.98120464 -3.05263664 -0.98120464 0 0 Z " fill="#121212" transform="translate(34,41)"/>
</svg>
